<svg xmlns="http://www.w3.org/2000/svg" width="46.178" height="46.193" viewBox="0 0 46.178 46.193">
  <g id="Group_14" data-name="Group 14" transform="translate(-49.69 -585.207)">
    <path id="Path_13" data-name="Path 13" d="M72.509,585.207h23.36v45.547a1.138,1.138,0,0,1-1.175.639c-8.823-.012-17.646-.025-26.468.006a5.279,5.279,0,0,1-3.913-1.5c-.185-.18-.391-.34-.606-.525A2.9,2.9,0,0,1,60.64,631.4c-2.72-.045-5.441-.011-8.162-.013a2.677,2.677,0,0,1-2.787-2.772q0-7.282,0-14.564a2.676,2.676,0,0,1,2.784-2.775c2.63,0,5.261.025,7.89-.012a3.151,3.151,0,0,1,2.922,1.174c1.174-1.174,2.3-2.319,3.452-3.437a.781.781,0,0,0,.248-.89q-2.139-7.891-4.242-15.793c-.213-.8.015-1.2.8-1.41q2.583-.69,5.167-1.375c1.052-.281,2.1-.567,3.163-.854,0-.794.025-1.545-.008-2.294A1.1,1.1,0,0,1,72.509,585.207Zm17.966,31.41v-.58q0-4.644,0-9.289a2.093,2.093,0,0,1,.07-.621.893.893,0,0,1,1.719.056,2.676,2.676,0,0,1,.056.624c0,3.532,0,7.064.01,10.6a1.552,1.552,0,0,0,.179.717,3.081,3.081,0,0,1-1.45,4.356c-.119.053-.232.115-.373.185a3,3,0,0,1-.246,3.061,3.1,3.1,0,0,1-2.806,1.349,3.092,3.092,0,0,1,.024,2.487h6.378V587.042H73.716v25.19h1.7v-.618q0-8.5,0-17c0-.844.248-1.127,1.043-1.213a2.4,2.4,0,0,0,2.285-2.347.938.938,0,0,1,1.049-.975q4.081,0,8.162,0a.939.939,0,0,1,1.041.984,2.4,2.4,0,0,0,2.338,2.343c.656.062.972.356.983.992.019,1.142.033,2.286-.014,3.427a1.2,1.2,0,0,1-.425.825,1.141,1.141,0,0,1-.874.065.825.825,0,0,1-.527-.864c-.01-.8.005-1.593-.013-2.39,0-.132-.1-.35-.193-.379a4.335,4.335,0,0,1-3.03-3.172H80.5a4.229,4.229,0,0,1-2.8,3.08.52.52,0,0,0-.433.59q.017,8.094.008,16.188v.476h4.72a4.387,4.387,0,0,1-1.51-6.63,4.316,4.316,0,0,1,6.18-.613,4.182,4.182,0,0,1,1.5,3.86,4.476,4.476,0,0,1-2.383,3.388c1.263-.038,2.493-.073,3.432.93a3.092,3.092,0,0,1,.641,3.406Zm-22.787-6c-1.3,1.3-2.555,2.552-3.8,3.814a.624.624,0,0,0-.126.4q-.01,5.928,0,11.857a.75.75,0,0,0,.223.488c.551.511,1.142.978,1.687,1.493a3.325,3.325,0,0,0,2.412.914c5.455-.013,10.91-.006,16.365-.007a3.506,3.506,0,0,0,.5-.016,1.233,1.233,0,0,0,1.117-1.255,1.259,1.259,0,0,0-1.4-1.252c-2.179-.006-4.358,0-6.537-.005a1.624,1.624,0,0,1-.53-.062.9.9,0,0,1-.566-1.013.91.91,0,0,1,.955-.723q4.779,0,9.558,0a2.914,2.914,0,0,0,.583-.037,1.243,1.243,0,0,0,.007-2.447,2.852,2.852,0,0,0-.582-.039q-4.756,0-9.512,0a.907.907,0,1,1-.01-1.8q5.725,0,11.451,0a2.761,2.761,0,0,0,.582-.038,1.232,1.232,0,0,0,.914-1.724,1.366,1.366,0,0,0-1.406-.765c-3.832.005-7.664.01-11.5-.012a1.425,1.425,0,0,1-.833-.326.739.739,0,0,1-.145-.914.9.9,0,0,1,.9-.552q3.495.008,6.988,0c.661,0,1.323.017,1.984-.006a1.259,1.259,0,0,0,1.228-1.672,1.347,1.347,0,0,0-1.442-.848H69.487c-.71,0-.952-.191-1.134-.89C68.137,612.351,67.923,611.525,67.688,610.619Zm-11.864,2.457H52.712c-.911,0-1.218.308-1.218,1.22q0,7.031,0,14.062c0,.913.308,1.224,1.213,1.224H60.73c.914,0,1.226-.308,1.226-1.211q0-5.16,0-10.321c0-1.307,0-2.614,0-3.921,0-.585-.287-1.007-.8-1.025-1.165-.041-2.331-.013-3.53-.013v.528c0,3.231.005,6.461-.009,9.691a1.416,1.416,0,0,1-.221.748.8.8,0,0,1-.974.26.867.867,0,0,1-.6-.9c.006-2.209,0-4.417,0-6.625Zm15.948-.822c-.048-.189-.082-.335-.121-.478Q70,605.64,68.347,599.5c-.222-.824-.06-1.124.755-1.436a2.44,2.44,0,0,0,1.58-2.64c-.171-.953-.03-1.172.906-1.475.113-.037.274-.172.276-.264.019-1.019.012-2.039.012-3.12l-7.208,1.93L70,612.254Zm14.606-3.9A2.506,2.506,0,1,0,83.82,610.8,2.535,2.535,0,0,0,86.378,608.358Zm-16.107-8.7L71.8,605.3l.049-.018v-7.038Z"/>
    <path id="Path_14" data-name="Path 14" d="M113.513,612.046a.9.9,0,1,1,.022-1.8.9.9,0,1,1-.022,1.8Z" transform="translate(-22.114 -8.802)"/>
    <path id="Path_15" data-name="Path 15" d="M60.951,649a.9.9,0,1,1-.892-.92A.887.887,0,0,1,60.951,649Z" transform="translate(-3.325 -22.101)"/>
  </g>
</svg>
