<svg xmlns="http://www.w3.org/2000/svg" width="43.746" height="43.741" viewBox="0 0 43.746 43.741">
  <g id="Group_13" data-name="Group 13" transform="translate(-40.573 -745.472)">
    <path id="Path_12" data-name="Path 12" d="M44.93,745.472H76.539c.1.117.2.239.3.349q3.592,3.595,7.191,7.184a.857.857,0,0,1,.285.665q-.011,15.225-.008,30.451a5.105,5.105,0,0,1-5.111,5.09q-16.763,0-33.526,0a5,5,0,0,1-4.1-2.079,6.389,6.389,0,0,1-1-2.274V749.829a1.564,1.564,0,0,0,.087-.229,4.824,4.824,0,0,1,2.143-3.212A14.334,14.334,0,0,1,44.93,745.472Zm2.221,40.318v-.558q0-7.219,0-14.437a5.1,5.1,0,0,1,5.172-5.159q10.167,0,20.333,0A5.1,5.1,0,0,1,77.82,770.8q0,7.239,0,14.48v.513H78.9a1.777,1.777,0,0,0,1.993-2q0-14.331.005-28.661a.854.854,0,0,0-.271-.671q-2.624-2.6-5.223-5.227a.893.893,0,0,0-1-.3v.452q0,3.865,0,7.731a5.108,5.108,0,0,1-5.109,5.094q-6.813,0-13.626,0a5.11,5.11,0,0,1-5.1-5.106q0-3.866,0-7.732v-.489H46.045a1.8,1.8,0,0,0-2.055,2.067v32.761c0,.129,0,.257,0,.385a1.72,1.72,0,0,0,1.615,1.682C46.1,785.82,46.6,785.79,47.152,785.79Zm3.416-.025H74.4v-.454q0-7.13,0-14.262a1.775,1.775,0,0,0-1.993-2H52.555a1.773,1.773,0,0,0-1.987,2.005q0,7.131,0,14.262Zm13.565-30.4v-6.451H53.985v.439q0,3.738,0,7.475a1.768,1.768,0,0,0,1.977,1.974H68.99a1.777,1.777,0,0,0,2-2q0-3.715,0-7.432v-.45H67.556v6.441Z" transform="translate(0 0)"/>
  </g>
</svg>
